# xmcd
#
# Track frame offsets:
#	150
#	14998
#	39343
#	56838
#	73383
#	90733
#	105715
#	118898
#	142133
#	183823
#	201022
#	216500
#	228475
#	242085
#	253773
#
# Disc length: 3545 seconds
# Revision: 0
# Processed by: cddbd v1.5.2PL0 Copyright (c) Steve Scherf et al.
# Submitted via: dBpowerAMP V12.0
#
DISCID=ee0dd70f
DTITLE=Various Artist - Forever Soul vol.2
DYEAR=2002
DGENRE=
TTITLE0=Al Green - You ought to be with me
TTITLE1=Curtis Mayfield - Freddie's dead
TTITLE2=Bobby Womack - Secrets
TTITLE3=Al Jarreau - Use me (Till you use me up)
TTITLE4=Nina Simone - Don't let me misunderstood (live)
TTITLE5=The Platters - The great pretender
TTITLE6=Percy Sledge - I've been lovin' you too long
TTITLE7=Chi-Lites - Have you seen her
TTITLE8=Millie Jackson - All the way lover
TTITLE9=O.V Wright - Let's straighten it out
TTITLE10=Minnie Riperton - Completeness
TTITLE11=Syl Johnson - I hear the love chimes
TTITLE12=Jackie Wilson - (Your love keeps lifting me) Higher and higher
TTITLE13=Robert Parker - Barefootin'
TTITLE14=Brook Benton and Dinah Washington - Baby (You got what it takes)
EXTD=
EXTT0=
EXTT1=
EXTT2=
EXTT3=
EXTT4=
EXTT5=
EXTT6=
EXTT7=
EXTT8=
EXTT9=
EXTT10=
EXTT11=
EXTT12=
EXTT13=
EXTT14=
PLAYORDER=
